<svg width="251" height="148" viewBox="0 0 251 148" fill="none" xmlns="http://www.w3.org/2000/svg">
<path d="M0 63.8262L125.331 0L129.845 6.89229L4.5075 70.7185L0 63.8262Z" fill="#01A469"/>
<path d="M125.161 0L250.498 63.8262L245.991 70.7185L120.653 6.89229L125.161 0Z" fill="#01A469"/>
<path d="M27.1777 86.5774H36.5025V141.493H27.1777V86.5774Z" fill="#01A469"/>
<path d="M186 17.5454H195V35.5454H186V17.5454Z" fill="#01A469"/>
<path d="M33.3099 110.059H64.9193V118.011H33.3099V110.059Z" fill="#01A469"/>
<path d="M55.5946 110.059H64.9194V140.472H55.5946V110.059Z" fill="#01A469"/>
<path d="M214.261 85.557H223.586V140.472H214.261V85.557Z" fill="#01A469"/>
<path d="M185.572 110.059H217.182V118.011H185.572V110.059Z" fill="#01A469"/>
<path d="M185.572 110.059H194.903V140.472H185.572V110.059Z" fill="#01A469"/>
<path d="M79.4117 98.8757H87.6302V140.999H79.4117V98.8757Z" fill="#01A469"/>
<path d="M84.0095 98.8757H171.366V106.833H84.0095V98.8757Z" fill="#01A469"/>
<path d="M164.47 98.8757H173.665V141.458H164.47V98.8757Z" fill="#01A469"/>
<path d="M0 140.472H250.498V147.058H0V140.472Z" fill="#01A469"/>
<path d="M108.98 66.5454L102.9 77.8454C102.367 78.8454 101.727 79.5988 100.98 80.1054C100.247 80.5988 99.4467 80.8454 98.58 80.8454C97.8867 80.8454 97.2 80.6988 96.52 80.4054L97.16 78.3654C97.7067 78.5388 98.16 78.6254 98.52 78.6254C99.36 78.6254 100.053 78.1921 100.6 77.3254L100.82 76.9854L95.24 66.5454H98.02L102.16 74.7654L106.42 66.5454H108.98ZM122.768 66.3454C124.141 66.3454 125.375 66.6588 126.468 67.2854C127.575 67.8988 128.441 68.7521 129.068 69.8454C129.695 70.9388 130.008 72.1721 130.008 73.5454C130.008 74.9188 129.695 76.1521 129.068 77.2454C128.441 78.3388 127.575 79.1988 126.468 79.8254C125.375 80.4388 124.141 80.7454 122.768 80.7454C121.515 80.7454 120.368 80.4854 119.328 79.9654C118.301 79.4454 117.455 78.7188 116.788 77.7854C116.135 76.8521 115.728 75.7921 115.568 74.6054H113.368V80.5454H110.808V66.5454H113.368V72.2854H115.608C115.795 71.1254 116.215 70.0988 116.868 69.2054C117.535 68.2988 118.375 67.5988 119.388 67.1054C120.415 66.5988 121.541 66.3454 122.768 66.3454ZM122.768 78.4654C123.635 78.4654 124.421 78.2588 125.128 77.8454C125.835 77.4321 126.388 76.8521 126.788 76.1054C127.188 75.3588 127.388 74.5054 127.388 73.5454C127.388 72.5854 127.188 71.7321 126.788 70.9854C126.388 70.2388 125.835 69.6588 125.128 69.2454C124.421 68.8321 123.635 68.6254 122.768 68.6254C121.901 68.6254 121.115 68.8321 120.408 69.2454C119.715 69.6588 119.161 70.2388 118.748 70.9854C118.348 71.7321 118.148 72.5854 118.148 73.5454C118.148 74.5054 118.348 75.3588 118.748 76.1054C119.161 76.8521 119.715 77.4321 120.408 77.8454C121.115 78.2588 121.901 78.4654 122.768 78.4654ZM142.882 68.7454H138.242V80.5454H135.662V68.7454H131.042V66.5454H142.882V68.7454ZM153.701 77.3054H146.701L145.321 80.5454H142.641L148.941 66.5454H151.501L157.821 80.5454H155.101L153.701 77.3054ZM152.841 75.2654L150.201 69.1454L147.581 75.2654H152.841Z" fill="#01A469"/>
<path d="M82.032 58.8334C80.32 58.8334 78.768 58.4654 77.376 57.7294C76 56.9774 74.912 55.9454 74.112 54.6334C73.328 53.3054 72.936 51.8094 72.936 50.1454C72.936 48.4814 73.328 46.9934 74.112 45.6814C74.912 44.3534 76 43.3214 77.376 42.5854C78.768 41.8334 80.328 41.4574 82.056 41.4574C83.512 41.4574 84.824 41.7134 85.992 42.2254C87.176 42.7374 88.168 43.4734 88.968 44.4334L86.472 46.7374C85.336 45.4254 83.928 44.7694 82.248 44.7694C81.208 44.7694 80.28 45.0014 79.464 45.4654C78.648 45.9134 78.008 46.5454 77.544 47.3614C77.096 48.1774 76.872 49.1054 76.872 50.1454C76.872 51.1854 77.096 52.1134 77.544 52.9294C78.008 53.7454 78.648 54.3854 79.464 54.8494C80.28 55.2974 81.208 55.5214 82.248 55.5214C83.928 55.5214 85.336 54.8574 86.472 53.5294L88.968 55.8334C88.168 56.8094 87.176 57.5534 85.992 58.0654C84.808 58.5774 83.488 58.8334 82.032 58.8334ZM104.51 55.4254V58.5454H91.5021V41.7454H104.198V44.8654H95.3661V48.5134H103.166V51.5374H95.3661V55.4254H104.51ZM114.155 51.7774H111.467V58.5454H107.603V41.7454H111.467V48.5374H114.251L118.667 41.7454H122.771L117.275 49.8574L122.939 58.5454H118.523L114.155 51.7774ZM132.032 41.7454C133.52 41.7454 134.808 41.9934 135.896 42.4894C137 42.9854 137.848 43.6894 138.44 44.6014C139.032 45.5134 139.328 46.5934 139.328 47.8414C139.328 49.0734 139.032 50.1534 138.44 51.0814C137.848 51.9934 137 52.6974 135.896 53.1934C134.808 53.6734 133.52 53.9134 132.032 53.9134H128.648V58.5454H124.76V41.7454H132.032ZM131.816 50.7454C132.984 50.7454 133.872 50.4974 134.48 50.0014C135.088 49.4894 135.392 48.7694 135.392 47.8414C135.392 46.8974 135.088 46.1774 134.48 45.6814C133.872 45.1694 132.984 44.9134 131.816 44.9134H128.648V50.7454H131.816ZM154.901 55.4254V58.5454H141.893V41.7454H154.589V44.8654H145.757V48.5134H153.557V51.5374H145.757V55.4254H154.901ZM170.881 44.9134H165.505V58.5454H161.665V44.9134H156.313V41.7454H170.881V44.9134Z" fill="#01A469"/>
</svg>
