<svg width="197" height="108" viewBox="0 0 197 108" fill="none" xmlns="http://www.w3.org/2000/svg">
<rect width="197" height="108" rx="1" fill="#21252B"/>
<path d="M143.7 40.6V31.2H136.7V37.4L111 25.8L63.1 47.4L65.9 53.8L74.4 50V61.2H17V68.2H95V61.2H81.4V46.8L111 33.5L156.1 53.8L158.9 47.4L143.7 40.6Z" fill="#F34447"/>
<path d="M24.254 72.39C22.874 72.39 21.788 72.852 20.996 73.776C20.204 74.7 19.808 75.966 19.808 77.574C19.808 79.17 20.174 80.436 20.906 81.372C21.65 82.296 22.76 82.758 24.236 82.758C24.8 82.758 25.334 82.71 25.838 82.614C26.342 82.518 26.834 82.398 27.314 82.254V83.658C26.834 83.838 26.336 83.97 25.82 84.054C25.316 84.138 24.71 84.18 24.002 84.18C22.694 84.18 21.602 83.91 20.726 83.37C19.85 82.83 19.19 82.062 18.746 81.066C18.314 80.07 18.098 78.9 18.098 77.556C18.098 76.26 18.332 75.12 18.8 74.136C19.28 73.14 19.982 72.366 20.906 71.814C21.83 71.25 22.952 70.968 24.272 70.968C25.628 70.968 26.81 71.22 27.818 71.724L27.17 73.092C26.774 72.912 26.33 72.75 25.838 72.606C25.358 72.462 24.83 72.39 24.254 72.39ZM33.629 74.172C34.457 74.172 35.165 74.352 35.753 74.712C36.353 75.072 36.809 75.582 37.121 76.242C37.445 76.89 37.607 77.652 37.607 78.528V79.482H31.001C31.025 80.574 31.301 81.408 31.829 81.984C32.369 82.548 33.119 82.83 34.079 82.83C34.691 82.83 35.231 82.776 35.699 82.668C36.179 82.548 36.671 82.38 37.175 82.164V83.55C36.683 83.766 36.197 83.922 35.717 84.018C35.237 84.126 34.667 84.18 34.007 84.18C33.095 84.18 32.285 83.994 31.577 83.622C30.881 83.25 30.335 82.698 29.939 81.966C29.555 81.222 29.363 80.316 29.363 79.248C29.363 78.192 29.537 77.286 29.885 76.53C30.245 75.774 30.743 75.192 31.379 74.784C32.027 74.376 32.777 74.172 33.629 74.172ZM33.611 75.468C32.855 75.468 32.255 75.714 31.811 76.206C31.379 76.686 31.121 77.358 31.037 78.222H35.951C35.939 77.406 35.747 76.746 35.375 76.242C35.003 75.726 34.415 75.468 33.611 75.468ZM45.7692 74.352H47.4972L43.3752 78.996L47.8392 84H46.0032L41.6472 79.104V84H40.0632V74.352H41.6472V79.032L45.7692 74.352ZM54.1805 74.172C55.3685 74.172 56.3225 74.586 57.0425 75.414C57.7745 76.242 58.1405 77.49 58.1405 79.158C58.1405 80.802 57.7745 82.05 57.0425 82.902C56.3225 83.754 55.3625 84.18 54.1625 84.18C53.4185 84.18 52.8005 84.042 52.3085 83.766C51.8285 83.478 51.4505 83.148 51.1745 82.776H51.0665C51.0905 82.98 51.1145 83.238 51.1385 83.55C51.1625 83.862 51.1745 84.132 51.1745 84.36V88.32H49.5905V74.352H50.8865L51.1025 75.666H51.1745C51.4625 75.246 51.8405 74.892 52.3085 74.604C52.7765 74.316 53.4005 74.172 54.1805 74.172ZM53.8925 75.504C52.9085 75.504 52.2125 75.78 51.8045 76.332C51.4085 76.884 51.1985 77.724 51.1745 78.852V79.158C51.1745 80.346 51.3665 81.264 51.7505 81.912C52.1465 82.548 52.8725 82.866 53.9285 82.866C54.5165 82.866 54.9965 82.704 55.3685 82.38C55.7525 82.056 56.0345 81.618 56.2145 81.066C56.4065 80.502 56.5025 79.86 56.5025 79.14C56.5025 78.036 56.2865 77.154 55.8545 76.494C55.4345 75.834 54.7805 75.504 53.8925 75.504ZM64.3908 74.172C65.2188 74.172 65.9268 74.352 66.5148 74.712C67.1148 75.072 67.5708 75.582 67.8828 76.242C68.2068 76.89 68.3688 77.652 68.3688 78.528V79.482H61.7628C61.7868 80.574 62.0628 81.408 62.5908 81.984C63.1308 82.548 63.8808 82.83 64.8408 82.83C65.4528 82.83 65.9928 82.776 66.4608 82.668C66.9408 82.548 67.4328 82.38 67.9368 82.164V83.55C67.4448 83.766 66.9588 83.922 66.4788 84.018C65.9988 84.126 65.4288 84.18 64.7688 84.18C63.8568 84.18 63.0468 83.994 62.3388 83.622C61.6428 83.25 61.0968 82.698 60.7008 81.966C60.3168 81.222 60.1248 80.316 60.1248 79.248C60.1248 78.192 60.2988 77.286 60.6468 76.53C61.0068 75.774 61.5048 75.192 62.1408 74.784C62.7888 74.376 63.5388 74.172 64.3908 74.172ZM64.3728 75.468C63.6168 75.468 63.0168 75.714 62.5728 76.206C62.1408 76.686 61.8828 77.358 61.7988 78.222H66.7128C66.7008 77.406 66.5088 76.746 66.1368 76.242C65.7648 75.726 65.1768 75.468 64.3728 75.468ZM77.4849 75.684H74.3349V84H72.7689V75.684H69.6549V74.352H77.4849V75.684ZM82.8832 74.352H84.5752L86.6632 79.842C86.8432 80.322 87.0052 80.784 87.1492 81.228C87.2932 81.66 87.4012 82.074 87.4732 82.47H87.5452C87.6172 82.17 87.7312 81.78 87.8872 81.3C88.0432 80.808 88.2052 80.316 88.3732 79.824L90.3352 74.352H92.0452L87.8872 85.332C87.5512 86.244 87.1132 86.97 86.5732 87.51C86.0452 88.05 85.3132 88.32 84.3772 88.32C84.0892 88.32 83.8372 88.302 83.6212 88.266C83.4052 88.242 83.2192 88.212 83.0632 88.176V86.916C83.1952 86.94 83.3512 86.964 83.5312 86.988C83.7232 87.012 83.9212 87.024 84.1252 87.024C84.6772 87.024 85.1212 86.868 85.4572 86.556C85.8052 86.244 86.0752 85.83 86.2672 85.314L86.7712 84.036L82.8832 74.352ZM106.099 79.158C106.099 80.754 105.715 81.99 104.947 82.866C104.179 83.742 103.141 84.18 101.833 84.18C100.609 84.18 99.619 83.796 98.863 83.028C98.119 82.26 97.699 81.15 97.603 79.698H95.155V84H93.571V74.352H95.155V78.366H97.621C97.753 77.01 98.191 75.972 98.935 75.252C99.679 74.532 100.657 74.172 101.869 74.172C102.697 74.172 103.429 74.37 104.065 74.766C104.701 75.15 105.199 75.714 105.559 76.458C105.919 77.19 106.099 78.09 106.099 79.158ZM99.223 79.158C99.223 80.37 99.433 81.294 99.853 81.93C100.273 82.554 100.939 82.866 101.851 82.866C102.775 82.866 103.441 82.554 103.849 81.93C104.257 81.294 104.461 80.37 104.461 79.158C104.461 77.946 104.251 77.034 103.831 76.422C103.423 75.81 102.763 75.504 101.851 75.504C100.939 75.504 100.273 75.81 99.853 76.422C99.433 77.034 99.223 77.946 99.223 79.158ZM115.102 75.684H111.952V84H110.386V75.684H107.272V74.352H115.102V75.684ZM120.657 74.19C121.833 74.19 122.703 74.448 123.267 74.964C123.831 75.48 124.113 76.302 124.113 77.43V84H122.961L122.655 82.632H122.583C122.163 83.16 121.719 83.55 121.251 83.802C120.795 84.054 120.159 84.18 119.343 84.18C118.467 84.18 117.741 83.952 117.165 83.496C116.589 83.028 116.301 82.302 116.301 81.318C116.301 80.358 116.679 79.62 117.435 79.104C118.191 78.576 119.355 78.288 120.927 78.24L122.565 78.186V77.61C122.565 76.806 122.391 76.248 122.043 75.936C121.695 75.624 121.203 75.468 120.567 75.468C120.063 75.468 119.583 75.546 119.127 75.702C118.671 75.846 118.245 76.014 117.849 76.206L117.363 75.018C117.783 74.79 118.281 74.598 118.857 74.442C119.433 74.274 120.033 74.19 120.657 74.19ZM122.547 79.284L121.125 79.338C119.925 79.386 119.091 79.578 118.623 79.914C118.167 80.25 117.939 80.724 117.939 81.336C117.939 81.876 118.101 82.272 118.425 82.524C118.761 82.776 119.187 82.902 119.703 82.902C120.519 82.902 121.197 82.68 121.737 82.236C122.277 81.78 122.547 81.084 122.547 80.148V79.284Z" fill="#F34447"/>
</svg>
